<svg xmlns="http://www.w3.org/2000/svg" viewBox="0 0 512 512" width="100%" height="100%">
  <defs>
    <linearGradient id="brandGradient" x1="0%" y1="100%" x2="100%" y2="0%">
      <stop offset="0%" stop-color="#4f46e5" />
      <stop offset="100%" stop-color="#6366f1" />
    </linearGradient>
    <filter id="smoothShadow" x="-10%" y="-10%" width="120%" height="120%">
      <feDropShadow dx="0" dy="8" stdDeviation="12" flood-color="#4f46e5" flood-opacity="0.15" />
    </filter>
  </defs>

  <rect width="512" height="512" rx="128" fill="url(#brandGradient)" filter="url(#smoothShadow)"/>

  <path d="M160 140C160 128.954 168.954 120 180 120H292.686C298.0 120 303.07 122.112 306.828 125.872L346.142 165.186C349.902 168.944 352 174.014 352 179.328V372C352 383.046 343.046 392 332 392H180C168.954 392 160 383.046 160 372V140Z" fill="#ffffff"/>

  <path d="M296 120V156C296 164.837 303.163 172 312 172H350" fill="none" stroke="#e2e8f0" stroke-width="4" stroke-linejoin="round"/>

  <rect x="200" y="212" width="112" height="16" rx="8" fill="#cbd5e1"/>
  <rect x="200" y="252" width="80" height="16" rx="8" fill="#cbd5e1"/>
  <rect x="200" y="292" width="112" height="16" rx="8" fill="#cbd5e1"/>

  <path d="M200 344L216 360L248 324" fill="none" stroke="#4f46e5" stroke-width="20" stroke-linecap="round" stroke-linejoin="round"/>
</svg>
